<svg width="213" height="36" viewBox="0 0 213 36" fill="none" xmlns="http://www.w3.org/2000/svg">
<path d="M2.66688 2.16V1.8H9.07488V22.248C9.07488 24.144 8.69088 25.416 7.92288 26.064C7.15488 26.688 5.99088 27 4.43088 27C2.89488 27 1.52688 26.772 0.326875 26.316L0.434875 26.028C1.58688 26.484 2.77488 26.712 3.99888 26.712C4.81488 26.712 5.35488 26.364 5.61888 25.668C5.90688 24.972 6.05088 23.844 6.05088 22.284V2.16H2.66688ZM15.4818 18.216C15.4818 21.192 15.9978 23.376 17.0298 24.768C18.0858 26.16 19.4658 26.856 21.1698 26.856C23.5698 26.856 25.7058 26.496 27.5778 25.776L27.6858 26.028C25.7658 26.772 23.5938 27.144 21.1698 27.144C18.7698 27.144 16.8138 26.424 15.3018 24.984C13.7898 23.544 13.0338 21.324 13.0338 18.324C13.0338 15.324 13.8258 12.996 15.4098 11.34C16.9938 9.684 19.0098 8.856 21.4578 8.856C23.4258 8.856 25.0818 9.444 26.4258 10.62C27.7698 11.796 28.4418 13.536 28.4418 15.84C28.4418 15.96 28.4418 16.08 28.4418 16.2H15.5898C15.5178 16.848 15.4818 17.52 15.4818 18.216ZM25.9938 15.912C25.9698 13.608 25.5258 11.904 24.6618 10.8C23.7978 9.696 22.6818 9.144 21.3138 9.144C19.9458 9.144 18.7218 9.744 17.6418 10.944C16.5858 12.144 15.9138 13.8 15.6258 15.912H25.9938ZM55.451 9.216L55.667 9C55.763 9.048 55.883 9.192 56.027 9.432C56.195 9.672 56.291 9.888 56.315 10.08C56.363 10.272 56.387 10.452 56.387 10.62C56.387 11.268 56.243 11.928 55.955 12.6L49.403 27H49.043L43.859 13.068L37.523 27H37.163L30.467 9H32.987L38.495 23.904L43.679 12.636L42.347 9H44.867L50.375 23.904L55.595 12.6C55.883 12.096 56.027 11.496 56.027 10.8C56.027 10.104 55.835 9.576 55.451 9.216ZM60.8333 18.216C60.8333 21.192 61.3493 23.376 62.3813 24.768C63.4373 26.16 64.8173 26.856 66.5213 26.856C68.9213 26.856 71.0573 26.496 72.9293 25.776L73.0373 26.028C71.1173 26.772 68.9453 27.144 66.5213 27.144C64.1213 27.144 62.1653 26.424 60.6533 24.984C59.1413 23.544 58.3853 21.324 58.3853 18.324C58.3853 15.324 59.1773 12.996 60.7613 11.34C62.3453 9.684 64.3613 8.856 66.8093 8.856C68.7773 8.856 70.4333 9.444 71.7773 10.62C73.1213 11.796 73.7933 13.536 73.7933 15.84C73.7933 15.96 73.7933 16.08 73.7933 16.2H60.9413C60.8693 16.848 60.8333 17.52 60.8333 18.216ZM71.3453 15.912C71.3213 13.608 70.8773 11.904 70.0133 10.8C69.1493 9.696 68.0333 9.144 66.6653 9.144C65.2973 9.144 64.0733 9.744 62.9933 10.944C61.9373 12.144 61.2653 13.8 60.9773 15.912H71.3453ZM80.9222 27C78.8102 27 77.4782 26.448 76.9262 25.344C76.8062 25.104 76.7462 24.888 76.7462 24.696V0.0359995H79.2662V24.444C79.2662 25.14 79.3982 25.68 79.6622 26.064C79.9502 26.424 80.2382 26.616 80.5262 26.64L80.9222 26.712H82.0382V27H80.9222ZM94.9129 10.26C94.5289 9.948 93.9049 9.684 93.0409 9.468C92.2009 9.252 91.5649 9.144 91.1329 9.144C90.7009 9.144 90.4489 9.144 90.3769 9.144C89.0809 9.168 88.1449 9.504 87.5689 10.152C86.9929 10.776 86.7049 11.484 86.7049 12.276C86.7049 13.068 86.9569 13.74 87.4609 14.292C87.9649 14.82 88.5889 15.24 89.3329 15.552C90.1009 15.84 90.9169 16.176 91.7809 16.56C92.6689 16.944 93.4849 17.34 94.2289 17.748C94.9969 18.132 95.6329 18.708 96.1369 19.476C96.6409 20.22 96.8929 21.156 96.8929 22.284C96.8929 23.412 96.4969 24.372 95.7049 25.164C94.9129 25.956 94.0249 26.484 93.0409 26.748C92.0809 27.012 91.0369 27.144 89.9089 27.144C87.4609 27.144 85.6249 26.604 84.4009 25.524L84.6169 25.308C85.0969 25.764 85.8049 26.136 86.7409 26.424C87.7009 26.712 88.6249 26.856 89.5129 26.856C90.9289 26.856 92.0929 26.472 93.0049 25.704C93.9409 24.912 94.4089 23.94 94.4089 22.788C94.4089 21.612 94.0609 20.676 93.3649 19.98C92.6689 19.26 91.8169 18.708 90.8089 18.324C89.8249 17.916 88.8289 17.52 87.8209 17.136C86.8129 16.728 85.9609 16.176 85.2649 15.48C84.5689 14.76 84.2209 13.932 84.2209 12.996C84.2209 12.06 84.4369 11.304 84.8689 10.728C85.3009 10.128 85.8769 9.708 86.5969 9.468C87.8209 9.06 89.0449 8.856 90.2689 8.856C92.3329 8.856 93.9409 9.24 95.0929 10.008L94.9129 10.26ZM122.184 2.088C124.968 1.896 127.428 1.8 129.564 1.8C135.492 1.8 138.456 3.78 138.456 7.74C138.456 9.228 138.024 10.512 137.16 11.592C136.296 12.648 134.916 13.368 133.02 13.752C134.844 13.968 136.284 14.52 137.34 15.408C138.396 16.296 138.924 17.844 138.924 20.052C138.924 24.684 135.96 27 130.032 27H122.184V2.088ZM125.172 26.64H130.032C132.168 26.64 133.68 26.088 134.568 24.984C135.48 23.856 135.936 22.14 135.936 19.836C135.936 17.532 135.48 15.996 134.568 15.228C133.656 14.46 132.3 14.052 130.5 14.004H125.172V26.64ZM129.564 2.16C128.172 2.16 126.708 2.244 125.172 2.412V13.644H130.5C133.884 13.5 135.576 11.556 135.576 7.812C135.576 5.988 135.072 4.596 134.064 3.636C133.056 2.652 131.556 2.16 129.564 2.16ZM145.36 33.444C144.592 35.148 143.644 36 142.516 36C142.012 36 141.424 35.916 140.752 35.748V35.46C141.304 35.604 141.796 35.676 142.228 35.676C143.452 35.676 144.388 34.932 145.036 33.444L148.06 27H148.024L141.328 9H143.848L149.428 24.012L154.936 12.6C155.224 12.096 155.368 11.496 155.368 10.8C155.368 10.104 155.176 9.576 154.792 9.216L155.008 9C155.104 9.048 155.224 9.192 155.368 9.432C155.536 9.672 155.632 9.888 155.656 10.08C155.704 10.272 155.728 10.452 155.728 10.62C155.728 11.268 155.584 11.928 155.296 12.6L148.384 27L145.36 33.444ZM170.566 27H170.098L173.23 1.8H174.418L181.978 25.092L189.502 1.8H190.69L193.822 27H190.834L188.35 6.84L181.834 27H179.566L172.978 7.092L170.566 27ZM199.876 18.216C199.876 21.192 200.392 23.376 201.424 24.768C202.48 26.16 203.86 26.856 205.564 26.856C207.964 26.856 210.1 26.496 211.972 25.776L212.08 26.028C210.16 26.772 207.988 27.144 205.564 27.144C203.164 27.144 201.208 26.424 199.696 24.984C198.184 23.544 197.428 21.324 197.428 18.324C197.428 15.324 198.22 12.996 199.804 11.34C201.388 9.684 203.404 8.856 205.852 8.856C207.82 8.856 209.476 9.444 210.82 10.62C212.164 11.796 212.836 13.536 212.836 15.84C212.836 15.96 212.836 16.08 212.836 16.2H199.984C199.912 16.848 199.876 17.52 199.876 18.216ZM210.388 15.912C210.364 13.608 209.92 11.904 209.056 10.8C208.192 9.696 207.076 9.144 205.708 9.144C204.34 9.144 203.116 9.744 202.036 10.944C200.98 12.144 200.308 13.8 200.02 15.912H210.388Z" fill="#8E6B0F"/>
</svg>
